@startuml Class 


class Server{
    - players: Player[]
    -quiz : Quiz
    -currentQuestion: Question
    -admin : Admin

    +login()
    +logout()
    +sendQuestionWithAnswers()
    +receiveAnswers(?)
    +Server()  
    +startQuiz()
    +endQuiz()
    +pauseQuiz()
    +skipQuestion()
    +getAccessCode()
    
}

class Player {
    -name : String
    -score : int
}

class TokenManager {
    -admin: Admin
    +login()
    +logout()
}

class Admin{
    +createQuiz()
    +deleteQuiz()
    +updateQuiz()
    +deleteProfile()
} 

class Quiz{
    -questions : Question[]
    +createQuestion()
    +deleteQuestion()
    +updateQuestion()
}

abstract class Question{
    -Answers : Answer[]
    -score : int
    +createAnswer()
    +deleteAnswer()
    +updateAnswer()
    +getScoreFromAnswer(Answer[]) : int
}

abstract class Answer{
    
}

class InputQuestion{
    
}

class OrderQuestion{
    
}

class SelectQuestion{
    
}


class InputAnswer{
    
}

class OrderAnswer{
    
}

class SelectAnswer{
    
}





Server "1  "--"n " Admin
Server "1"--"0..n" Quiz
Server *-right- Player
Admin -l- TokenManager
Admin "n"--"1..n" Quiz
Quiz *- Question
Question *-right- Answer



Question <|-- InputQuestion
Question <|-- OrderQuestion
Question <|-- SelectQuestion

Answer <|-- InputAnswer
Answer <|-- OrderAnswer
Answer <|-- SelectAnswer

@enduml